<svg xmlns="http://www.w3.org/2000/svg" xmlns:xlink="http://www.w3.org/1999/xlink" xmlns:lucid="lucid" width="2104.87" height="947.08"><g transform="translate(-39.146250155367625 -39.14625015536774)" lucid:page-tab-id="0_0"><path d="M0 0h2445.02v3457.96H0z" fill="#fff"/><path d="M428.17 308.4v10m0 10v19.98m0 10v19.97m0 10v19.98m0 10v19.98m0 10v19.98m0 10v19.98m0 10v19.97m0 10v19.98m0 10v20m0 9.98v19.98m0 10v19.98m0 10v19.97m0 10v20m0 9.98v20m0 9.98v19.98m0 10V798m0 10v19.97m0 10v19.97m0 10v19.98m0 10v19.97m0 10v19.98m0 10v9.98" stroke="#333" fill="none"/><path d="M428.67 308.42h-1v-.5h1z" stroke="#333" stroke-width=".05" fill="#333"/><path d="M428.17 967.87v.5" stroke="#333" fill="none"/><path d="M408.17 508a8 8 0 0 1 8-8h24a8 8 0 0 1 8 8v424a8 8 0 0 1-8 8h-24a8 8 0 0 1-8-8z" stroke="#f2f2f2" fill="#ced4db"/><path d="M820.6 308.4v10.18m0 10.17v20.34m0 10.17v20.34m0 10.18v20.34m0 10.18v20.34m0 10.17v20.35m0 10.17v20.35m0 10.17v20.34m0 10.17v20.35m0 10.17v20.34m0 10.18v20.34m0 10.18v20.34m0 10.17v20.35m0 10.17v20.35m0 10.17v20.34m0 10.17v20.35m0 10.17v20.34m0 10.18v20.35m0 10.17v20.34m0 10.17v20.35m0 10.17v20.35m0 10.17v20.34m0 10.17v10.18" stroke="#333" fill="none"/><path d="M821.1 308.42h-1v-.5h1z" stroke="#333" stroke-width=".05" fill="#333"/><path d="M820.6 979.7v.52" stroke="#333" fill="none"/><path d="M795.5 528a8 8 0 0 1 8-8h24a8 8 0 0 1 8 8v384a8 8 0 0 1-8 8h-24a8 8 0 0 1-8-8z" stroke="#f2f2f2" fill="#ced4db"/><path d="M319.15 219.9a8 8 0 0 1 8-8H529.2a8 8 0 0 1 8 8v80a8 8 0 0 1-8 8H327.14a8 8 0 0 1-8-8z" stroke="#000" stroke-opacity="0" fill="#ffaf28"/><use xlink:href="#a" transform="matrix(1,0,0,1,327.14625015536774,219.90863817703473) translate(50.97530864197531 44.44444444444444)"/><path d="M651.77 219.9a8 8 0 0 1 8-8h290.77a8 8 0 0 1 8 8v80a8 8 0 0 1-8 8H659.77a8 8 0 0 1-8-8z" stroke="#000" stroke-opacity="0" fill="#ffcc78"/><use xlink:href="#b" transform="matrix(1,0,0,1,659.7720513385292,219.90863817703473) translate(59.26543209876546 44.44444444444444)"/><path d="M118.9 269.32c0 10.9-8.85 19.75-19.75 19.75s-19.75-8.84-19.75-19.75c0-10.9 8.84-19.75 19.75-19.75 10.9 0 19.75 8.85 19.75 19.75z" stroke="#333" fill="#fff"/><path d="M99.15 289.07v47.3a27.6 27.6 0 0 0 4.27 14.76l35.73 56.44m-40-63.2l-40 63.2m0-98.75h80" stroke="#333" fill="none"/><path d="M59.15 257.57a8 8 0 0 1 8-8h64a8 8 0 0 1 8 8v164a8 8 0 0 1-8 8h-64a8 8 0 0 1-8-8z" fill="none"/><use xlink:href="#c" transform="matrix(1,0,0,1,-20.853749844632375,407.5741901193936) translate(87.34567901234567 17.77777777777778)"/><path d="M99.15 345.8v9.88m0 9.88v19.75m0 9.88v19.75m0 9.87v19.75m0 9.88v19.74m0 9.88v19.75m0 9.87v19.75m0 9.87v19.74m0 9.88v19.74m0 9.88v19.75m0 9.86v19.75m0 9.88v19.75m0 9.88v19.75m0 9.88v19.75m0 9.87v19.75m0 9.87v19.75m0 9.88v19.74m0 9.88v19.75m0 9.87v19.75m0 9.86v19.75m0 9.9v19.74m0 9.87v9.88M99.15 345.82v-3.5M99.15 967.87v.5" stroke="#333" fill="none"/><path d="M168.64 67.15a8 8 0 0 1 8-8h836.75a8 8 0 0 1 8 8v26.68a8 8 0 0 1-8 8H176.63a8 8 0 0 1-8-8z" stroke="#000" stroke-opacity="0" stroke-width="2" fill="#fff" fill-opacity="0"/><use xlink:href="#d" transform="matrix(1,0,0,1,172.64311331445356,63.14625015536774) translate(367.9704938271605 22.64527777777778)"/><use xlink:href="#e" transform="matrix(1,0,0,1,172.64311331445356,63.14625015536774) translate(445.5013580246914 22.64527777777778)"/><path d="M440.5 100.43H758.8M440.54 100.43h-1.03M758.75 100.43h1.03" stroke="#a9afb8" stroke-width="2" fill="none"/><path d="M168.64 109.06a8 8 0 0 1 8-8h837.7a8 8 0 0 1 8 8v2.85a8 8 0 0 1-8 8h-837.7a8 8 0 0 1-8-8z" stroke="#000" stroke-opacity="0" stroke-width="2" fill="#fff" fill-opacity="0"/><use xlink:href="#f" transform="matrix(1,0,0,1,172.643113314454,105.06386213393357) translate(210.50753086419752 20.45777777777778)"/><use xlink:href="#g" transform="matrix(1,0,0,1,172.643113314454,105.06386213393357) translate(278.2853086419753 20.45777777777778)"/><use xlink:href="#h" transform="matrix(1,0,0,1,172.643113314454,105.06386213393357) translate(363.84086419753083 20.45777777777778)"/><use xlink:href="#i" transform="matrix(1,0,0,1,172.643113314454,105.06386213393357) translate(455.0754320987654 20.45777777777778)"/><use xlink:href="#j" transform="matrix(1,0,0,1,172.643113314454,105.06386213393357) translate(473.16185185185185 20.45777777777778)"/><use xlink:href="#k" transform="matrix(1,0,0,1,172.643113314454,105.06386213393357) translate(568.0383950617284 20.45777777777778)"/><use xlink:href="#l" transform="matrix(1,0,0,1,172.643113314454,105.06386213393357) translate(592.7297530864198 20.45777777777778)"/><path d="M836.5 595.13h257.86" stroke="#3a414a" fill="none"/><path d="M836.5 595.63h-.5v-1h.5z" stroke="#3a414a" stroke-width=".05" fill="#3a414a"/><path d="M1109.1 595.13l-14.25 4.64v-9.27z" stroke="#3a414a" fill="#3a414a"/><use xlink:href="#m" transform="matrix(1,0,0,1,879.0733673944017,564.4652934594759) translate(0.0049999999999954525 17.77777777777778)"/><path d="M1029.02 220.46a8 8 0 0 1 8-8h188.42a8 8 0 0 1 8 8v80a8 8 0 0 1-8 8h-188.42a8 8 0 0 1-8-8z" stroke="#000" stroke-opacity="0" fill="#ffcc78"/><use xlink:href="#n" transform="matrix(1,0,0,1,1037.020324736627,220.46419373259027) translate(16.81481481481481 44.44444444444444)"/><path d="M836.5 682.74h531.6" stroke="#3a414a" fill="none"/><path d="M836.5 683.24h-.5v-1h.5z" stroke="#3a414a" stroke-width=".05" fill="#3a414a"/><path d="M1382.87 682.74l-14.27 4.63v-9.27z" stroke="#3a414a" fill="#3a414a"/><use xlink:href="#o" transform="matrix(1,0,0,1,1056.6435631457243,652.0714850840498) translate(0 17.77777777777778)"/><path d="M1275.5 220.46a8 8 0 0 1 8-8h242.98a8 8 0 0 1 8 8v80a8 8 0 0 1-8 8h-243a8 8 0 0 1-8-8z" stroke="#000" stroke-opacity="0" fill="#ffcc78"/><use xlink:href="#p" transform="matrix(1,0,0,1,1283.4911712837804,220.46419373259027) translate(62.981481481481474 44.44444444444444)"/><path d="M1405 308.96V314m0 5.05v10.08m0 5.05v10.08m0 5.04v10.1m0 5.03v10.08m0 5.06v10.08m0 5.04v10.1m0 5.03v10.1m0 5.04v10.08m0 5.05v10.08m0 5.04v10.08m0 5.04v10.08m0 5.05v10.08m0 5.04v10.1m0 5.03v10.08m0 5.05v10.08m0 5.05v10.1m0 5.03v10.08m0 5.05v10.1m0 5.03v10.1m0 5.03v10.1m0 5.03v10.07m0 5.05v10.08m0 5.04v10.1m0 5.03v10.08m0 5.05v10.08m0 5.04v10.1m0 5.03v10.08m0 5.05v10.08m0 5.04v10.1m0 5.03v10.1m0 5.03v10.08m0 5.04v10.1m0 5.03v10.1m0 5.04v10.08m0 5.05v10.08m0 5.04v10.08m0 5.04v10.08m0 5.05v10.08m0 5.04v10.1m0 5.03v10.1m0 5.03v10.08m0 5.05v10.1m0 5.03v5.04" stroke="#3a414a" fill="none"/><path d="M1405.5 308.98h-1v-.52h1z" stroke="#3a414a" stroke-width=".05" fill="#3a414a"/><path d="M1405 959.4v.52M836 873.97h1134.23M836 873.97h-.5" stroke="#3a414a" fill="none"/><path d="M1985 873.97l-14.27 4.64v-9.26z" stroke="#3a414a" fill="#3a414a"/><use xlink:href="#q" transform="matrix(1,0,0,1,1371.549995856134,843.3049354347685) translate(0.0049999999999954525 17.77777777777778)"/><path d="M1890.22 220.46a8 8 0 0 1 8-8h217.8a8 8 0 0 1 8 8v80a8 8 0 0 1-8 8h-217.8a8 8 0 0 1-8-8z" stroke="#000" stroke-opacity="0" fill="#ffcc78"/><use xlink:href="#r" transform="matrix(1,0,0,1,1898.2203272702134,220.46419373259027) translate(31.993827160493822 44.44444444444444)"/><path d="M2007.12 308.96v4.98m0 4.98v9.96m0 4.98v9.96m0 4.98v9.95m0 4.98v9.96m0 4.97v9.96m0 4.98v9.96m0 4.98v9.96m0 4.98v9.96m0 4.98v9.96m0 4.98v9.95m0 5v9.95m0 4.98v9.96m0 4.97v9.95m0 4.98v9.96m0 4.98V538m0 4.98v9.95m0 4.98v9.97m0 4.98v9.96m0 5v9.95m0 4.98v9.95m0 4.98v9.96m0 4.98v9.96m0 4.98v9.95m0 4.97v9.96m0 4.98v9.97m0 4.98v9.95m0 4.98v9.96m0 4.98v9.96m0 4.98v9.96m0 4.97v9.95m0 4.98V777m0 4.97v9.96m0 4.98v9.96m0 4.98v9.96m0 4.98v9.96m0 4.98v9.95m0 4.98v9.96m0 5v9.95m0 4.98v9.96m0 4.96v9.96m0 4.98v9.96m0 4.98v9.96m0 4.98v9.95m0 4.98v5" stroke="#3a414a" fill="none"/><path d="M2007.62 308.98h-1v-.52h1z" stroke="#3a414a" stroke-width=".05" fill="#3a414a"/><path d="M2007.12 966.18v.5M836.5 771.73h838.36" stroke="#3a414a" fill="none"/><path d="M836.5 772.23h-.5v-1h.5z" stroke="#3a414a" stroke-width=".05" fill="#3a414a"/><path d="M1689.63 771.73l-14.27 4.64v-9.27z" stroke="#3a414a" fill="#3a414a"/><use xlink:href="#s" transform="matrix(1,0,0,1,1256.9997163598186,741.0657124835003) translate(0.0049999999999954525 17.77777777777778)"/><path d="M1576.54 220.46a8 8 0 0 1 8-8h254.42a8 8 0 0 1 8 8v80a8 8 0 0 1-8 8h-254.42a8 8 0 0 1-8-8z" stroke="#000" stroke-opacity="0" fill="#ffcc78"/><use xlink:href="#t" transform="matrix(1,0,0,1,1584.535664148091,220.46419373259027) translate(53.950617283950606 44.44444444444444)"/><path d="M1711.75 308.96v5m0 5V329m0 5V344m0 5v10m0 5v10.02m0 5v10.02m0 5v10m0 5.02v10m0 5v10.02m0 5v10m0 5.02v10m0 5v10.02m0 5v10m0 5.02v10m0 5v10.02m0 5v10.02m0 5v10m0 5.02v10m0 5v10.02m0 5v10m0 5.02v10m0 5v10.02m0 5v10m0 5.02v10m0 5v10.02m0 5v10.02m0 5v10m0 5v10.02m0 5v10.02m0 5v10m0 5.02v10m0 5v10.02m0 5v10m0 5.02v10m0 5v10.02m0 5v10m0 5.02v10m0 5v10.02m0 5v10.02m0 5v10m0 5v10.02m0 5v10.02m0 5v10m0 5.02v10m0 5v5.02" stroke="#3a414a" fill="none"/><path d="M1712.25 308.98h-1v-.52h1z" stroke="#3a414a" stroke-width=".05" fill="#3a414a"/><path d="M1711.75 969.56v.52M1131.23 308.96v10.1m0 10.08v20.17m0 10.1v20.17m0 10.08v20.18m0 10.08v20.18m0 10.1v20.16m0 10.1v20.16m0 10.1v20.16m0 10.1v20.16m0 10.08v20.18m0 10.08v20.17m0 10.1v20.16m0 10.08v20.17m0 10.1v20.16m0 10.1v20.17m0 10.1v20.16m0 10.08v20.2m0 10.07v20.17m0 10.1v20.16m0 10.1v20.16m0 10.1v20.16m0 10.08v20.18m0 10.08v10.1" stroke="#3a414a" fill="none"/><path d="M1131.73 308.98h-1v-.52h1z" stroke="#3a414a" stroke-width=".05" fill="#3a414a"/><path d="M1131.23 974.64v.5M99.65 533.93h291.63M99.66 533.93h-.5" stroke="#3a414a" fill="none"/><path d="M406.05 533.93l-14.27 4.64v-9.28z" stroke="#3a414a" fill="#3a414a"/><use xlink:href="#u" transform="matrix(1,0,0,1,177.62942100990222,503.66771977353676) translate(0 17.50812500863154)"/><path d="M449.17 566.08H778.6" stroke="#3a414a" fill="none"/><path d="M449.18 566.58h-.5v-1h.5z" stroke="#3a414a" stroke-width=".05" fill="#3a414a"/><path d="M793.38 566.07l-14.27 4.64v-9.26z" stroke="#3a414a" fill="#3a414a"/><g><use xlink:href="#v" transform="matrix(1,0,0,1,552.6808635628231,535.8120111071288) translate(0 17.50812500863154)"/></g><path d="M1111.23 566a6 6 0 0 1 6-6h28a6 6 0 0 1 6 6v48a6 6 0 0 1-6 6h-28a6 6 0 0 1-6-6zM1385 652.77a6 6 0 0 1 6-6h28a6 6 0 0 1 6 6V694a6 6 0 0 1-6 6h-28a6 6 0 0 1-6-6zM1691.75 746a6 6 0 0 1 6-6h28a6 6 0 0 1 6 6v48a6 6 0 0 1-6 6h-28a6 6 0 0 1-6-6zM1987.12 846a6 6 0 0 1 6-6h28a6 6 0 0 1 6 6v48a6 6 0 0 1-6 6h-28a6 6 0 0 1-6-6z" stroke="#3a414a" fill="#dfe3e8"/><path d="M79.15 488a8 8 0 0 1 8-8h24a8 8 0 0 1 8 8v464a8 8 0 0 1-8 8h-24a8 8 0 0 1-8-8z" stroke="#f2f2f2" fill="#ced4db"/><defs><path fill="#333" d="M52-101C46-14 166-7 216-51l9-45h-74l6-28h105l-18 87C217-12 181 4 130 4 60 4 18-31 18-101c0-106 78-167 188-146 30 6 48 27 59 54l-34 9c-10-26-31-41-67-40-75 1-107 50-112 123" id="w"/><path fill="#333" d="M111-194c62-3 86 47 72 106H45c-7 38 6 69 45 68 27-1 43-14 53-32l24 11C152-15 129 4 87 4 38 3 12-23 12-71c0-70 32-119 99-123zm44 81c14-66-71-72-95-28-4 8-8 17-11 28h106" id="x"/><path fill="#333" d="M67-158c22-48 132-52 116 29L158 0h-32l25-140c3-38-53-32-70-12C52-117 51-52 38 0H6l36-190h30" id="y"/><path fill="#333" d="M66-151c12-25 30-51 66-40l-6 26C45-176 58-65 38 0H6l36-190h30" id="z"/><path fill="#333" d="M165-48c-4 18 1 34 23 27l-3 20c-29 8-62 0-52-35h-2C116-14 99 4 63 4 30 4 8-16 8-49c0-68 71-67 138-67 10-26 0-56-31-54-26 1-42 9-47 31l-32-5c8-67 160-71 144 15-5 28-9 54-15 81zM42-50c3 52 80 24 89-6 7-12 7-24 11-38-47 1-103-4-100 44" id="A"/><path fill="#333" d="M6 0l50-261h32L37 0H6" id="B"/><path fill="#333" d="M62-99C39-31 123 0 170-40s38-139 58-208h34C234-144 253 4 115 4 49 4 18-43 31-112l26-136h34" id="C"/><path fill="#333" d="M14 0l48-248h34L48 0H14" id="D"/><g id="a"><use transform="matrix(0.06172839506172839,0,0,0.06172839506172839,0,0)" xlink:href="#w"/><use transform="matrix(0.06172839506172839,0,0,0.06172839506172839,17.28395061728395,0)" xlink:href="#x"/><use transform="matrix(0.06172839506172839,0,0,0.06172839506172839,29.629629629629626,0)" xlink:href="#y"/><use transform="matrix(0.06172839506172839,0,0,0.06172839506172839,41.9753086419753,0)" xlink:href="#x"/><use transform="matrix(0.06172839506172839,0,0,0.06172839506172839,54.32098765432098,0)" xlink:href="#z"/><use transform="matrix(0.06172839506172839,0,0,0.06172839506172839,61.66666666666666,0)" xlink:href="#A"/><use transform="matrix(0.06172839506172839,0,0,0.06172839506172839,74.01234567901234,0)" xlink:href="#B"/><use transform="matrix(0.06172839506172839,0,0,0.06172839506172839,78.88888888888889,0)" xlink:href="#C"/><use transform="matrix(0.06172839506172839,0,0,0.06172839506172839,94.87654320987654,0)" xlink:href="#D"/><path fill="#333" d="M-1.1 1.54h103.26v1.63H-1.1z"/></g><path fill="#333" d="M125-24c46 0 70-25 89-51l25 16C214-24 183 4 123 4 8 4-5-146 60-208c32-50 158-61 191-5 5 7 9 14 11 22l-32 10c-9-28-33-43-69-43-74 0-108 51-108 125 0 46 24 75 72 75" id="E"/><path fill="#333" d="M30-147c31-64 166-65 159 27C183-49 158 1 86 4 9 8 1-88 30-147zM88-20c53 0 68-48 68-100 0-31-11-51-44-50-52 1-68 46-68 97 0 32 13 53 44 53" id="F"/><path fill="#333" d="M51-54c-9 22 5 41 31 30L79-1C43 14 10-4 19-52l22-115H19l5-23h22l19-43h21l-9 43h35l-4 23H73" id="G"/><g id="b"><use transform="matrix(0.06172839506172839,0,0,0.06172839506172839,0,0)" xlink:href="#w"/><use transform="matrix(0.06172839506172839,0,0,0.06172839506172839,17.28395061728395,0)" xlink:href="#x"/><use transform="matrix(0.06172839506172839,0,0,0.06172839506172839,29.629629629629626,0)" xlink:href="#y"/><use transform="matrix(0.06172839506172839,0,0,0.06172839506172839,41.9753086419753,0)" xlink:href="#x"/><use transform="matrix(0.06172839506172839,0,0,0.06172839506172839,54.32098765432098,0)" xlink:href="#z"/><use transform="matrix(0.06172839506172839,0,0,0.06172839506172839,61.66666666666666,0)" xlink:href="#A"/><use transform="matrix(0.06172839506172839,0,0,0.06172839506172839,74.01234567901234,0)" xlink:href="#B"/><use transform="matrix(0.06172839506172839,0,0,0.06172839506172839,78.88888888888889,0)" xlink:href="#C"/><use transform="matrix(0.06172839506172839,0,0,0.06172839506172839,94.87654320987654,0)" xlink:href="#D"/><use transform="matrix(0.06172839506172839,0,0,0.06172839506172839,101.04938271604938,0)" xlink:href="#E"/><use transform="matrix(0.06172839506172839,0,0,0.06172839506172839,117.03703703703704,0)" xlink:href="#F"/><use transform="matrix(0.06172839506172839,0,0,0.06172839506172839,129.3827160493827,0)" xlink:href="#y"/><use transform="matrix(0.06172839506172839,0,0,0.06172839506172839,141.72839506172838,0)" xlink:href="#G"/><use transform="matrix(0.06172839506172839,0,0,0.06172839506172839,147.9012345679012,0)" xlink:href="#z"/><use transform="matrix(0.06172839506172839,0,0,0.06172839506172839,155.24691358024688,0)" xlink:href="#F"/><use transform="matrix(0.06172839506172839,0,0,0.06172839506172839,167.59259259259255,0)" xlink:href="#B"/><path fill="#333" d="M-1.1 1.54h174.68v1.63H-1.12z"/></g><path fill="#333" d="M248-139C247-14 144 9 11 0l48-248c105-6 190 8 189 109zm-34 0c1-70-52-87-126-82L50-27c98 7 163-21 164-112" id="H"/><path fill="#333" d="M44-68c0 29 11 47 38 47 30 0 42-19 51-41l28 9C148-21 126 4 82 4 31 4 10-29 12-85c3-77 74-140 146-93 12 8 15 23 18 40l-31 5c-1-22-13-36-36-36-52 0-65 49-65 101" id="I"/><g id="c"><use transform="matrix(0.06172839506172839,0,0,0.06172839506172839,0,0)" xlink:href="#H"/><use transform="matrix(0.06172839506172839,0,0,0.06172839506172839,15.987654320987653,0)" xlink:href="#F"/><use transform="matrix(0.06172839506172839,0,0,0.06172839506172839,28.333333333333332,0)" xlink:href="#I"/><use transform="matrix(0.06172839506172839,0,0,0.06172839506172839,39.44444444444444,0)" xlink:href="#G"/><use transform="matrix(0.06172839506172839,0,0,0.06172839506172839,45.617283950617285,0)" xlink:href="#F"/><use transform="matrix(0.06172839506172839,0,0,0.06172839506172839,57.96296296296296,0)" xlink:href="#z"/></g><path fill="#a9afb8" d="M250-142C247-53 197 0 108 0H6l48-248c105-5 200 3 196 106zm-49 2c1-57-42-72-103-68L66-40c84 6 135-22 135-100" id="J"/><path fill="#a9afb8" d="M124-194c51 0 84 22 84 74C207-44 167 4 94 4 43 4 11-23 11-74c0-74 41-120 113-120zM99-30c46 0 58-42 58-86 0-27-11-44-37-44-44 0-55 40-57 84-1 27 10 45 36 46" id="K"/><path fill="#a9afb8" d="M67-101c-8 29-7 73 27 71 23-2 32-16 39-37l48 9C170-19 141 4 91 4 36 4 7-28 12-86c6-75 61-124 140-103 26 7 40 29 43 59l-50 4c-1-20-9-34-29-34-35 0-41 29-49 59" id="L"/><path fill="#a9afb8" d="M72-63c-8 23 5 39 32 30L98-1C54 14 12-6 23-64l18-93H15l7-33h28l24-45h31l-8 45h35l-6 33H90" id="M"/><path fill="#a9afb8" d="M84-151c13-25 34-51 72-40l-8 41C67-170 71-64 56 0H6l36-190h47" id="N"/><g id="d"><use transform="matrix(0.06172839506172839,0,0,0.06172839506172839,0,0)" xlink:href="#J"/><use transform="matrix(0.06172839506172839,0,0,0.06172839506172839,15.987654320987653,0)" xlink:href="#K"/><use transform="matrix(0.06172839506172839,0,0,0.06172839506172839,29.50617283950617,0)" xlink:href="#L"/><use transform="matrix(0.06172839506172839,0,0,0.06172839506172839,41.85185185185185,0)" xlink:href="#M"/><use transform="matrix(0.06172839506172839,0,0,0.06172839506172839,49.197530864197525,0)" xlink:href="#K"/><use transform="matrix(0.06172839506172839,0,0,0.06172839506172839,62.716049382716044,0)" xlink:href="#N"/></g><path fill="#a9afb8" d="M183 0l-10-63H79L44 0H-7l138-248h61L234 0h-51zm-14-102l-15-108c-16 38-36 73-55 108h70" id="O"/><path fill="#a9afb8" d="M6 0l48-248h52L58 0H6" id="P"/><g id="e"><use transform="matrix(0.06172839506172839,0,0,0.06172839506172839,0,0)" xlink:href="#O"/><use transform="matrix(0.06172839506172839,0,0,0.06172839506172839,15.987654320987653,0)" xlink:href="#P"/><use transform="matrix(0.06172839506172839,0,0,0.06172839506172839,22.160493827160494,0)" xlink:href="#J"/></g><path fill="#a9afb8" d="M187 0l-14-72H61L19 0h-37l149-248h38L221 0h-34zm-19-99l-22-123L76-99h92" id="Q"/><path fill="#a9afb8" d="M14 0l8-38h34L48 0H14" id="R"/><path fill="#a9afb8" d="M179 0l23-115H67L45 0H11l48-248h34L72-143h135l21-105h32L212 0h-33" id="S"/><path fill="#a9afb8" d="M222 0l43-216c-8 16-17 34-26 49L143 0h-22L81-216 41 0H11l48-248h42l38 208 116-208h45L252 0h-30" id="T"/><g id="f"><use transform="matrix(0.06172839506172839,0,0,0.06172839506172839,0,0)" xlink:href="#Q"/><use transform="matrix(0.06172839506172839,0,0,0.06172839506172839,14.814814814814813,0)" xlink:href="#R"/><use transform="matrix(0.06172839506172839,0,0,0.06172839506172839,20.98765432098765,0)" xlink:href="#S"/><use transform="matrix(0.06172839506172839,0,0,0.06172839506172839,36.9753086419753,0)" xlink:href="#R"/><use transform="matrix(0.06172839506172839,0,0,0.06172839506172839,43.148148148148145,0)" xlink:href="#T"/></g><path fill="#a9afb8" d="M20-101c0-91 52-143 145-150 126-9 127 168 53 223-23 17-55 32-93 32C57 4 20-33 20-101zm216-33c5-57-18-91-73-90-77 1-110 51-110 125 0 49 23 75 73 75 72-1 104-45 110-110" id="U"/><path fill="#a9afb8" d="M194-120c59 52 2 134-86 124-53-6-90-18-98-63l31-7c8 30 29 43 70 43 46 0 84-17 71-62-32-43-135-20-137-98-3-89 178-90 191-16l-30 9c-8-48-127-53-127 5 0 53 81 35 115 65" id="V"/><g id="g"><use transform="matrix(0.06172839506172839,0,0,0.06172839506172839,0,0)" xlink:href="#U"/><use transform="matrix(0.06172839506172839,0,0,0.06172839506172839,17.28395061728395,0)" xlink:href="#V"/><use transform="matrix(0.06172839506172839,0,0,0.06172839506172839,32.09876543209876,0)" xlink:href="#Q"/><use transform="matrix(0.06172839506172839,0,0,0.06172839506172839,46.91358024691357,0)" xlink:href="#T"/><use transform="matrix(0.06172839506172839,0,0,0.06172839506172839,65.37037037037035,0)" xlink:href="#Q"/></g><path fill="#a9afb8" d="M24-61C-1-165 59-251 163-251c67 1 105 36 105 101 0 88-46 140-124 152 2 33 24 47 60 39l-3 23c-50 15-89-11-89-61-46-3-79-26-88-64zm210-73c6-55-18-91-72-90-77 1-111 51-111 125 0 49 24 75 73 75 72 0 103-45 110-110" id="W"/><path fill="#a9afb8" d="M62-99C39-31 123 0 170-40s38-139 58-208h34C234-144 253 4 115 4 49 4 18-43 31-112l26-136h34" id="X"/><path fill="#a9afb8" d="M11 0l48-248h184l-5 28H87l-15 79h140l-5 27H67L50-27h158l-5 27H11" id="Y"/><g id="h"><use transform="matrix(0.06172839506172839,0,0,0.06172839506172839,0,0)" xlink:href="#S"/><use transform="matrix(0.06172839506172839,0,0,0.06172839506172839,15.987654320987653,0)" xlink:href="#Q"/><use transform="matrix(0.06172839506172839,0,0,0.06172839506172839,30.80246913580247,0)" xlink:href="#W"/><use transform="matrix(0.06172839506172839,0,0,0.06172839506172839,48.08641975308642,0)" xlink:href="#X"/><use transform="matrix(0.06172839506172839,0,0,0.06172839506172839,64.07407407407408,0)" xlink:href="#Y"/></g><path fill="#a9afb8" d="M37 80v-341h30V80H37" id="Z"/><use transform="matrix(0.06172839506172839,0,0,0.06172839506172839,0,0)" xlink:href="#Z" id="i"/><path fill="#a9afb8" d="M87-220l-18 92h140l-5 28H64L45 0H11l48-248h178l-5 28H87" id="aa"/><path fill="#a9afb8" d="M111-194c62-3 86 47 72 106H45c-7 38 6 69 45 68 27-1 43-14 53-32l24 11C152-15 129 4 87 4 38 3 12-23 12-71c0-70 32-119 99-123zm44 81c14-66-71-72-95-28-4 8-8 17-11 28h106" id="ab"/><path fill="#a9afb8" d="M68-162c25-46 127-43 121 31C183-60 169 1 98 4 69 5 53-11 43-31L36 0H5l52-261h31zm88 36c2-27-9-43-34-43-55 0-70 51-70 103 0 29 15 45 43 46 52 0 58-58 61-106" id="ac"/><path fill="#a9afb8" d="M66-151c12-25 30-51 66-40l-6 26C45-176 58-65 38 0H6l36-190h30" id="ad"/><path fill="#a9afb8" d="M67 3c-93-2-31-127-26-193h32L48-50c-3 39 53 32 70 12 30-34 30-101 43-152h32L157 0h-30c1-10 6-24 4-33-14 20-29 37-64 36" id="ae"/><path fill="#a9afb8" d="M165-48c-4 18 1 34 23 27l-3 20c-29 8-62 0-52-35h-2C116-14 99 4 63 4 30 4 8-16 8-49c0-68 71-67 138-67 10-26 0-56-31-54-26 1-42 9-47 31l-32-5c8-67 160-71 144 15-5 28-9 54-15 81zM42-50c3 52 80 24 89-6 7-12 7-24 11-38-47 1-103-4-100 44" id="af"/><path fill="#a9afb8" d="M198-190L69 30C53 58 25 83-20 72c4-11-1-27 19-22 33-1 43-29 59-52L20-190h32L79-34l84-156h35" id="ag"/><g id="j"><use transform="matrix(0.06172839506172839,0,0,0.06172839506172839,0,0)" xlink:href="#aa"/><use transform="matrix(0.06172839506172839,0,0,0.06172839506172839,13.518518518518517,0)" xlink:href="#ab"/><use transform="matrix(0.06172839506172839,0,0,0.06172839506172839,25.864197530864196,0)" xlink:href="#ac"/><use transform="matrix(0.06172839506172839,0,0,0.06172839506172839,38.20987654320987,0)" xlink:href="#ad"/><use transform="matrix(0.06172839506172839,0,0,0.06172839506172839,45.55555555555555,0)" xlink:href="#ae"/><use transform="matrix(0.06172839506172839,0,0,0.06172839506172839,57.90123456790123,0)" xlink:href="#af"/><use transform="matrix(0.06172839506172839,0,0,0.06172839506172839,70.24691358024691,0)" xlink:href="#ad"/><use transform="matrix(0.06172839506172839,0,0,0.06172839506172839,77.5925925925926,0)" xlink:href="#ag"/></g><path fill="#a9afb8" d="M206-222l-58 71C115-108 89-62 76 0H43c20-96 77-159 130-221H37l5-27h169" id="ah"/><path fill="#a9afb8" d="M58-38C53-5 46 26 28 46H7C19 32 27 18 32 0H17l7-38h34" id="ai"/><g id="k"><use transform="matrix(0.06172839506172839,0,0,0.06172839506172839,0,0)" xlink:href="#ah"/><use transform="matrix(0.06172839506172839,0,0,0.06172839506172839,12.345679012345679,0)" xlink:href="#ai"/></g><path fill="#a9afb8" d="M123-251c66 0 92 69 53 113C138-94 73-75 39-27h128l-5 27H-2c17-92 123-93 159-163 14-28-1-64-36-62-29 2-46 17-54 41l-30-6c13-36 37-61 86-61" id="aj"/><path fill="#a9afb8" d="M16-82c0-90 25-169 113-169 48 0 68 33 68 82C197-79 170 4 84 4 37 4 16-31 16-82zm30 5c0 32 11 55 40 55 69 0 76-79 80-149 2-32-10-55-39-55-69 0-81 81-81 149" id="ak"/><path fill="#a9afb8" d="M148-71c0-36-31-44-71-41l5-28c46 3 81-6 81-50 0-23-15-35-39-35-30 0-49 17-56 41l-32-3c12-39 42-63 90-64 43 0 69 19 71 60 1 43-30 58-65 66 27 5 49 22 49 53 0 85-133 99-164 35-4-7-7-15-9-22l29-9c8 25 25 45 58 45 34 1 53-17 53-48" id="al"/><g id="l"><use transform="matrix(0.06172839506172839,0,0,0.06172839506172839,0,0)" xlink:href="#aj"/><use transform="matrix(0.06172839506172839,0,0,0.06172839506172839,12.345679012345679,0)" xlink:href="#ak"/><use transform="matrix(0.06172839506172839,0,0,0.06172839506172839,24.691358024691358,0)" xlink:href="#aj"/><use transform="matrix(0.06172839506172839,0,0,0.06172839506172839,37.03703703703704,0)" xlink:href="#al"/></g><path fill="#3a414a" d="M103-194c29 0 47 14 56 36 2-11 5-23 8-32h30L160-5C157 61 82 97 21 62 9 55 4 45 1 30l28-7c7 42 83 31 92-3 4-16 9-38 13-55-13 20-29 36-62 36-40 0-60-25-60-64 0-71 23-131 91-131zm4 24c-53 0-58 54-61 104-2 27 10 44 36 44 49 0 65-50 67-102 1-29-15-46-42-46" id="am"/><path fill="#3a414a" d="M111-194c62-3 86 47 72 106H45c-7 38 6 69 45 68 27-1 43-14 53-32l24 11C152-15 129 4 87 4 38 3 12-23 12-71c0-70 32-119 99-123zm44 81c14-66-71-72-95-28-4 8-8 17-11 28h106" id="an"/><path fill="#3a414a" d="M51-54c-9 22 5 41 31 30L79-1C43 14 10-4 19-52l22-115H19l5-23h22l19-43h21l-9 43h35l-4 23H73" id="ao"/><path fill="#3a414a" d="M219-77C219 17 104-2 11 0l48-248c73 2 169-15 169 57 0 38-24 54-60 60 29 5 51 21 51 54zm-26-111c0-44-62-31-105-33l-16 79c55 0 121 9 121-46zm-7 110c-1-49-69-36-119-38L50-27c61-1 137 12 136-51" id="ap"/><path fill="#3a414a" d="M165-48c-4 18 1 34 23 27l-3 20c-29 8-62 0-52-35h-2C116-14 99 4 63 4 30 4 8-16 8-49c0-68 71-67 138-67 10-26 0-56-31-54-26 1-42 9-47 31l-32-5c8-67 160-71 144 15-5 28-9 54-15 81zM42-50c3 52 80 24 89-6 7-12 7-24 11-38-47 1-103-4-100 44" id="aq"/><path fill="#3a414a" d="M55-144c13 50 104 24 104 88C159 21 15 23 1-39l26-10c6 40 102 42 102-4-13-50-104-23-104-87 0-71 143-71 148-8l-29 4c-5-35-85-37-89 0" id="ar"/><path fill="#3a414a" d="M50-231l6-30h32l-6 30H50zM6 0l37-190h31L37 0H6" id="as"/><path fill="#3a414a" d="M44-68c0 29 11 47 38 47 30 0 42-19 51-41l28 9C148-21 126 4 82 4 31 4 10-29 12-85c3-77 74-140 146-93 12 8 15 23 18 40l-31 5c-1-22-13-36-36-36-52 0-65 49-65 101" id="at"/><path fill="#3a414a" d="M67-158c22-48 132-52 116 29L158 0h-32l25-140c3-38-53-32-70-12C52-117 51-52 38 0H6l36-190h30" id="au"/><path fill="#3a414a" d="M76-167L44 0H12l33-167H18l4-23h27c3-47 25-81 82-69l-4 24c-35-8-44 15-46 45h37l-5 23H76" id="av"/><path fill="#3a414a" d="M30-147c31-64 166-65 159 27C183-49 158 1 86 4 9 8 1-88 30-147zM88-20c53 0 68-48 68-100 0-31-11-51-44-50-52 1-68 46-68 97 0 32 13 53 44 53" id="aw"/><path fill="#3a414a" d="M17-49c1-102 45-165 103-212h30C92-210 49-145 49-46 49 4 63 43 85 75H54C30 43 18 2 17-49" id="ax"/><path fill="#3a414a" d="M67-162c32-53 139-36 121 50C175-51 163 2 97 4 68 4 52-11 42-31 38 6 28 39 22 75H-9l50-265h29c-1 10 0 20-3 28zm89 36c0-26-10-43-35-43-54 0-67 50-69 103-1 29 14 45 42 46 53 0 62-58 62-106" id="ay"/><path fill="#3a414a" d="M14 0l48-248h34L48 0H14" id="az"/><path fill="#3a414a" d="M248-139C247-14 144 9 11 0l48-248c105-6 190 8 189 109zm-34 0c1-70-52-87-126-82L50-27c98 7 163-21 164-112" id="aA"/><path fill="#3a414a" d="M98-137C97-35 54 29-4 75h-31C23 23 67-41 67-140c0-50-15-89-37-121h31c24 32 36 73 37 124" id="aB"/><g id="m"><use transform="matrix(0.06172839506172839,0,0,0.06172839506172839,0,0)" xlink:href="#am"/><use transform="matrix(0.06172839506172839,0,0,0.06172839506172839,12.345679012345679,0)" xlink:href="#an"/><use transform="matrix(0.06172839506172839,0,0,0.06172839506172839,24.691358024691358,0)" xlink:href="#ao"/><use transform="matrix(0.06172839506172839,0,0,0.06172839506172839,30.864197530864196,0)" xlink:href="#ap"/><use transform="matrix(0.06172839506172839,0,0,0.06172839506172839,45.67901234567901,0)" xlink:href="#aq"/><use transform="matrix(0.06172839506172839,0,0,0.06172839506172839,58.02469135802469,0)" xlink:href="#ar"/><use transform="matrix(0.06172839506172839,0,0,0.06172839506172839,69.1358024691358,0)" xlink:href="#as"/><use transform="matrix(0.06172839506172839,0,0,0.06172839506172839,74.01234567901234,0)" xlink:href="#at"/><use transform="matrix(0.06172839506172839,0,0,0.06172839506172839,85.12345679012346,0)" xlink:href="#as"/><use transform="matrix(0.06172839506172839,0,0,0.06172839506172839,90,0)" xlink:href="#au"/><use transform="matrix(0.06172839506172839,0,0,0.06172839506172839,102.34567901234568,0)" xlink:href="#av"/><use transform="matrix(0.06172839506172839,0,0,0.06172839506172839,108.51851851851852,0)" xlink:href="#aw"/><use transform="matrix(0.06172839506172839,0,0,0.06172839506172839,120.8641975308642,0)" xlink:href="#ax"/><use transform="matrix(0.06172839506172839,0,0,0.06172839506172839,128.20987654320987,0)" xlink:href="#ay"/><use transform="matrix(0.06172839506172839,0,0,0.06172839506172839,140.55555555555554,0)" xlink:href="#aq"/><use transform="matrix(0.06172839506172839,0,0,0.06172839506172839,152.9012345679012,0)" xlink:href="#ao"/><use transform="matrix(0.06172839506172839,0,0,0.06172839506172839,159.07407407407405,0)" xlink:href="#az"/><use transform="matrix(0.06172839506172839,0,0,0.06172839506172839,165.24691358024688,0)" xlink:href="#aA"/><use transform="matrix(0.06172839506172839,0,0,0.06172839506172839,181.23456790123453,0)" xlink:href="#aB"/></g><path fill="#3a414a" d="M179 0l23-115H67L45 0H11l48-248h34L72-143h135l21-105h32L212 0h-33" id="aC"/><path fill="#3a414a" d="M6 0l50-261h32L37 0H6" id="aD"/><path fill="#3a414a" d="M67-158c15-20 31-36 64-36 94 0 33 127 27 194h-32l25-140c3-38-53-32-70-12C52-117 51-51 37 0H6l51-261h31" id="aE"/><g id="n"><use transform="matrix(0.06172839506172839,0,0,0.06172839506172839,0,0)" xlink:href="#ap"/><use transform="matrix(0.06172839506172839,0,0,0.06172839506172839,14.814814814814813,0)" xlink:href="#aq"/><use transform="matrix(0.06172839506172839,0,0,0.06172839506172839,27.160493827160494,0)" xlink:href="#ar"/><use transform="matrix(0.06172839506172839,0,0,0.06172839506172839,38.27160493827161,0)" xlink:href="#as"/><use transform="matrix(0.06172839506172839,0,0,0.06172839506172839,43.14814814814815,0)" xlink:href="#at"/><use transform="matrix(0.06172839506172839,0,0,0.06172839506172839,54.25925925925927,0)" xlink:href="#aC"/><use transform="matrix(0.06172839506172839,0,0,0.06172839506172839,70.24691358024693,0)" xlink:href="#an"/><use transform="matrix(0.06172839506172839,0,0,0.06172839506172839,82.59259259259261,0)" xlink:href="#aq"/><use transform="matrix(0.06172839506172839,0,0,0.06172839506172839,94.9382716049383,0)" xlink:href="#aD"/><use transform="matrix(0.06172839506172839,0,0,0.06172839506172839,99.81481481481484,0)" xlink:href="#ao"/><use transform="matrix(0.06172839506172839,0,0,0.06172839506172839,105.98765432098767,0)" xlink:href="#aE"/><use transform="matrix(0.06172839506172839,0,0,0.06172839506172839,118.33333333333336,0)" xlink:href="#az"/><use transform="matrix(0.06172839506172839,0,0,0.06172839506172839,124.50617283950619,0)" xlink:href="#au"/><use transform="matrix(0.06172839506172839,0,0,0.06172839506172839,136.85185185185188,0)" xlink:href="#av"/><use transform="matrix(0.06172839506172839,0,0,0.06172839506172839,143.0246913580247,0)" xlink:href="#aw"/><path fill="#3a414a" d="M-1.1 1.54h157.58v1.63H-1.12z"/></g><path fill="#333" d="M103-194c29 0 47 14 56 36 2-11 5-23 8-32h30L160-5C157 61 82 97 21 62 9 55 4 45 1 30l28-7c7 42 83 31 92-3 4-16 9-38 13-55-13 20-29 36-62 36-40 0-60-25-60-64 0-71 23-131 91-131zm4 24c-53 0-58 54-61 104-2 27 10 44 36 44 49 0 65-50 67-102 1-29-15-46-42-46" id="aF"/><path fill="#333" d="M238-179c0 84-86 86-175 82L45 0H11l48-248c82 0 179-12 179 69zm-34 1c0-53-64-42-116-43l-19 98c63 0 135 9 135-55" id="aG"/><path fill="#333" d="M55-144c13 50 104 24 104 88C159 21 15 23 1-39l26-10c6 40 102 42 102-4-13-50-104-23-104-87 0-71 143-71 148-8l-29 4c-5-35-85-37-89 0" id="aH"/><path fill="#333" d="M50-231l6-30h32l-6 30H50zM6 0l37-190h31L37 0H6" id="aI"/><path fill="#333" d="M67-162c32-53 139-36 121 50C175-51 163 2 97 4 68 4 52-11 42-31 38 6 28 39 22 75H-9l50-265h29c-1 10 0 20-3 28zm89 36c0-26-10-43-35-43-54 0-67 50-69 103-1 29 14 45 42 46 53 0 62-58 62-106" id="aJ"/><path fill="#333" d="M17-49c1-102 45-165 103-212h30C92-210 49-145 49-46 49 4 63 43 85 75H54C30 43 18 2 17-49" id="aK"/><path fill="#333" d="M98-137C97-35 54 29-4 75h-31C23 23 67-41 67-140c0-50-15-89-37-121h31c24 32 36 73 37 124" id="aL"/><g id="o"><use transform="matrix(0.06079210072441507,0,0,0.06079210072441507,0,0)" xlink:href="#aF"/><use transform="matrix(0.06079210072441507,0,0,0.06079210072441507,12.158420144883014,0)" xlink:href="#x"/><use transform="matrix(0.06079210072441507,0,0,0.06079210072441507,24.316840289766027,0)" xlink:href="#G"/><use transform="matrix(0.06079210072441507,0,0,0.06079210072441507,30.396050362207532,0)" xlink:href="#aG"/><use transform="matrix(0.06079210072441507,0,0,0.06079210072441507,44.98615453606715,0)" xlink:href="#z"/><use transform="matrix(0.06079210072441507,0,0,0.06079210072441507,52.22041452227254,0)" xlink:href="#x"/><use transform="matrix(0.06079210072441507,0,0,0.06079210072441507,64.37883466715556,0)" xlink:href="#aH"/><use transform="matrix(0.06079210072441507,0,0,0.06079210072441507,75.32141279755027,0)" xlink:href="#I"/><use transform="matrix(0.06079210072441507,0,0,0.06079210072441507,86.26399092794497,0)" xlink:href="#z"/><use transform="matrix(0.06079210072441507,0,0,0.06079210072441507,93.49825091415036,0)" xlink:href="#aI"/><use transform="matrix(0.06079210072441507,0,0,0.06079210072441507,98.30082687137916,0)" xlink:href="#aJ"/><use transform="matrix(0.06079210072441507,0,0,0.06079210072441507,110.45924701626217,0)" xlink:href="#G"/><use transform="matrix(0.06079210072441507,0,0,0.06079210072441507,116.53845708870368,0)" xlink:href="#aI"/><use transform="matrix(0.06079210072441507,0,0,0.06079210072441507,121.34103304593248,0)" xlink:href="#F"/><use transform="matrix(0.06079210072441507,0,0,0.06079210072441507,133.4994531908155,0)" xlink:href="#y"/><use transform="matrix(0.06079210072441507,0,0,0.06079210072441507,145.65787333569853,0)" xlink:href="#aH"/><use transform="matrix(0.06079210072441507,0,0,0.06079210072441507,156.60045146609323,0)" xlink:href="#aK"/><use transform="matrix(0.06172839506172839,0,0,0.06172839506172839,163.83471145229862,0)" xlink:href="#ay"/><use transform="matrix(0.06172839506172839,0,0,0.06172839506172839,176.1803904646443,0)" xlink:href="#aq"/><use transform="matrix(0.06172839506172839,0,0,0.06172839506172839,188.52606947698996,0)" xlink:href="#ao"/><use transform="matrix(0.06172839506172839,0,0,0.06172839506172839,194.6989089831628,0)" xlink:href="#az"/><use transform="matrix(0.06172839506172839,0,0,0.06172839506172839,200.87174848933563,0)" xlink:href="#aA"/><use transform="matrix(0.06079210072441507,0,0,0.06079210072441507,216.85940281032327,0)" xlink:href="#aL"/></g><path fill="#3a414a" d="M238-179c0 84-86 86-175 82L45 0H11l48-248c82 0 179-12 179 69zm-34 1c0-53-64-42-116-43l-19 98c63 0 135 9 135-55" id="aM"/><path fill="#3a414a" d="M66-151c12-25 30-51 66-40l-6 26C45-176 58-65 38 0H6l36-190h30" id="aN"/><g id="p"><use transform="matrix(0.06172839506172839,0,0,0.06172839506172839,0,0)" xlink:href="#aM"/><use transform="matrix(0.06172839506172839,0,0,0.06172839506172839,14.814814814814813,0)" xlink:href="#aN"/><use transform="matrix(0.06172839506172839,0,0,0.06172839506172839,22.160493827160494,0)" xlink:href="#an"/><use transform="matrix(0.06172839506172839,0,0,0.06172839506172839,34.50617283950617,0)" xlink:href="#ar"/><use transform="matrix(0.06172839506172839,0,0,0.06172839506172839,45.61728395061728,0)" xlink:href="#at"/><use transform="matrix(0.06172839506172839,0,0,0.06172839506172839,56.72839506172839,0)" xlink:href="#aN"/><use transform="matrix(0.06172839506172839,0,0,0.06172839506172839,64.07407407407408,0)" xlink:href="#as"/><use transform="matrix(0.06172839506172839,0,0,0.06172839506172839,68.95061728395062,0)" xlink:href="#ay"/><use transform="matrix(0.06172839506172839,0,0,0.06172839506172839,81.2962962962963,0)" xlink:href="#ao"/><use transform="matrix(0.06172839506172839,0,0,0.06172839506172839,87.46913580246914,0)" xlink:href="#as"/><use transform="matrix(0.06172839506172839,0,0,0.06172839506172839,92.34567901234568,0)" xlink:href="#aw"/><use transform="matrix(0.06172839506172839,0,0,0.06172839506172839,104.69135802469137,0)" xlink:href="#au"/><path fill="#3a414a" d="M-1.1 1.54h119.25v1.63H-1.1z"/></g><path fill="#333" d="M222 0l43-216c-8 16-17 34-26 49L143 0h-22L81-216 41 0H11l48-248h42l38 208 116-208h45L252 0h-30" id="aO"/><path fill="#333" d="M133-28C103 26-5 8 13-77c13-62 24-115 90-117 29-1 46 15 56 35l19-102h32L160 0h-30zM45-64c-2 27 10 43 35 43 54-1 69-50 69-103 0-29-15-46-42-46-53-1-58 58-62 106" id="aP"/><g id="q"><use transform="matrix(0.06172839506172839,0,0,0.06172839506172839,0,0)" xlink:href="#aF"/><use transform="matrix(0.06172839506172839,0,0,0.06172839506172839,12.345679012345679,0)" xlink:href="#x"/><use transform="matrix(0.06172839506172839,0,0,0.06172839506172839,24.691358024691358,0)" xlink:href="#G"/><use transform="matrix(0.06172839506172839,0,0,0.06172839506172839,30.864197530864196,0)" xlink:href="#aO"/><use transform="matrix(0.06172839506172839,0,0,0.06172839506172839,49.32098765432099,0)" xlink:href="#x"/><use transform="matrix(0.06172839506172839,0,0,0.06172839506172839,61.666666666666664,0)" xlink:href="#aP"/><use transform="matrix(0.06172839506172839,0,0,0.06172839506172839,74.01234567901234,0)" xlink:href="#aI"/><use transform="matrix(0.06172839506172839,0,0,0.06172839506172839,78.88888888888889,0)" xlink:href="#I"/><use transform="matrix(0.06172839506172839,0,0,0.06172839506172839,90,0)" xlink:href="#A"/><use transform="matrix(0.06172839506172839,0,0,0.06172839506172839,102.34567901234568,0)" xlink:href="#G"/><use transform="matrix(0.06172839506172839,0,0,0.06172839506172839,108.51851851851852,0)" xlink:href="#aI"/><use transform="matrix(0.06172839506172839,0,0,0.06172839506172839,113.39506172839506,0)" xlink:href="#F"/><use transform="matrix(0.06172839506172839,0,0,0.06172839506172839,125.74074074074075,0)" xlink:href="#y"/><use transform="matrix(0.06172839506172839,0,0,0.06172839506172839,138.08641975308643,0)" xlink:href="#aH"/><use transform="matrix(0.06172839506172839,0,0,0.06172839506172839,149.19753086419755,0)" xlink:href="#aK"/><use transform="matrix(0.06172839506172839,0,0,0.06172839506172839,156.54320987654322,0)" xlink:href="#ay"/><use transform="matrix(0.06172839506172839,0,0,0.06172839506172839,168.88888888888889,0)" xlink:href="#aq"/><use transform="matrix(0.06172839506172839,0,0,0.06172839506172839,181.23456790123456,0)" xlink:href="#ao"/><use transform="matrix(0.06172839506172839,0,0,0.06172839506172839,187.4074074074074,0)" xlink:href="#az"/><use transform="matrix(0.06172839506172839,0,0,0.06172839506172839,193.58024691358023,0)" xlink:href="#aA"/><use transform="matrix(0.06172839506172839,0,0,0.06172839506172839,209.56790123456787,0)" xlink:href="#aL"/></g><path fill="#3a414a" d="M68-162c25-46 127-43 121 31C183-60 169 1 98 4 69 5 53-11 43-31L36 0H5l52-261h31zm88 36c2-27-9-43-34-43-55 0-70 51-70 103 0 29 15 45 43 46 52 0 58-58 61-106" id="aQ"/><path fill="#3a414a" d="M133-28C103 26-5 8 13-77c13-62 24-115 90-117 29-1 46 15 56 35l19-102h32L160 0h-30zM45-64c-2 27 10 43 35 43 54-1 69-50 69-103 0-29-15-46-42-46-53-1-58 58-62 106" id="aR"/><path fill="#3a414a" d="M67 3c-93-2-31-127-26-193h32L48-50c-3 39 53 32 70 12 30-34 30-101 43-152h32L157 0h-30c1-10 6-24 4-33-14 20-29 37-64 36" id="aS"/><g id="r"><use transform="matrix(0.06172839506172839,0,0,0.06172839506172839,0,0)" xlink:href="#aM"/><use transform="matrix(0.06172839506172839,0,0,0.06172839506172839,14.814814814814813,0)" xlink:href="#aN"/><use transform="matrix(0.06172839506172839,0,0,0.06172839506172839,22.160493827160494,0)" xlink:href="#an"/><use transform="matrix(0.06172839506172839,0,0,0.06172839506172839,34.50617283950617,0)" xlink:href="#ar"/><use transform="matrix(0.06172839506172839,0,0,0.06172839506172839,45.61728395061728,0)" xlink:href="#at"/><use transform="matrix(0.06172839506172839,0,0,0.06172839506172839,56.72839506172839,0)" xlink:href="#aN"/><use transform="matrix(0.06172839506172839,0,0,0.06172839506172839,64.07407407407408,0)" xlink:href="#as"/><use transform="matrix(0.06172839506172839,0,0,0.06172839506172839,68.95061728395062,0)" xlink:href="#aQ"/><use transform="matrix(0.06172839506172839,0,0,0.06172839506172839,81.2962962962963,0)" xlink:href="#an"/><use transform="matrix(0.06172839506172839,0,0,0.06172839506172839,93.64197530864199,0)" xlink:href="#aR"/><use transform="matrix(0.06172839506172839,0,0,0.06172839506172839,105.98765432098767,0)" xlink:href="#aA"/><use transform="matrix(0.06172839506172839,0,0,0.06172839506172839,121.97530864197533,0)" xlink:href="#aN"/><use transform="matrix(0.06172839506172839,0,0,0.06172839506172839,129.32098765432102,0)" xlink:href="#aS"/><use transform="matrix(0.06172839506172839,0,0,0.06172839506172839,141.66666666666669,0)" xlink:href="#am"/><path fill="#3a414a" d="M-1.1 1.54H155.1v1.63H-1.1z"/></g><path fill="#333" d="M151-220L108 0H75l42-220H32l6-28h203l-5 28h-85" id="aT"/><g id="s"><use transform="matrix(0.06172839506172839,0,0,0.06172839506172839,0,0)" xlink:href="#aF"/><use transform="matrix(0.06172839506172839,0,0,0.06172839506172839,12.345679012345679,0)" xlink:href="#x"/><use transform="matrix(0.06172839506172839,0,0,0.06172839506172839,24.691358024691358,0)" xlink:href="#G"/><use transform="matrix(0.06172839506172839,0,0,0.06172839506172839,30.864197530864196,0)" xlink:href="#aT"/><use transform="matrix(0.06172839506172839,0,0,0.06172839506172839,42.34567901234568,0)" xlink:href="#x"/><use transform="matrix(0.06172839506172839,0,0,0.06172839506172839,54.691358024691354,0)" xlink:href="#aH"/><use transform="matrix(0.06172839506172839,0,0,0.06172839506172839,65.80246913580247,0)" xlink:href="#G"/><use transform="matrix(0.06172839506172839,0,0,0.06172839506172839,71.9753086419753,0)" xlink:href="#aH"/><use transform="matrix(0.06172839506172839,0,0,0.06172839506172839,83.08641975308642,0)" xlink:href="#aK"/><use transform="matrix(0.06172839506172839,0,0,0.06172839506172839,90.4320987654321,0)" xlink:href="#ay"/><use transform="matrix(0.06172839506172839,0,0,0.06172839506172839,102.77777777777779,0)" xlink:href="#aq"/><use transform="matrix(0.06172839506172839,0,0,0.06172839506172839,115.12345679012347,0)" xlink:href="#ao"/><use transform="matrix(0.06172839506172839,0,0,0.06172839506172839,121.2962962962963,0)" xlink:href="#az"/><use transform="matrix(0.06172839506172839,0,0,0.06172839506172839,127.46913580246913,0)" xlink:href="#aA"/><use transform="matrix(0.06172839506172839,0,0,0.06172839506172839,143.45679012345678,0)" xlink:href="#aL"/></g><path fill="#3a414a" d="M151-220L108 0H75l42-220H32l6-28h203l-5 28h-85" id="aU"/><g id="t"><use transform="matrix(0.06172839506172839,0,0,0.06172839506172839,0,0)" xlink:href="#aM"/><use transform="matrix(0.06172839506172839,0,0,0.06172839506172839,14.814814814814813,0)" xlink:href="#aN"/><use transform="matrix(0.06172839506172839,0,0,0.06172839506172839,22.160493827160494,0)" xlink:href="#an"/><use transform="matrix(0.06172839506172839,0,0,0.06172839506172839,34.50617283950617,0)" xlink:href="#ar"/><use transform="matrix(0.06172839506172839,0,0,0.06172839506172839,45.61728395061728,0)" xlink:href="#at"/><use transform="matrix(0.06172839506172839,0,0,0.06172839506172839,56.72839506172839,0)" xlink:href="#aN"/><use transform="matrix(0.06172839506172839,0,0,0.06172839506172839,64.07407407407408,0)" xlink:href="#as"/><use transform="matrix(0.06172839506172839,0,0,0.06172839506172839,68.95061728395062,0)" xlink:href="#aQ"/><use transform="matrix(0.06172839506172839,0,0,0.06172839506172839,81.2962962962963,0)" xlink:href="#an"/><use transform="matrix(0.06172839506172839,0,0,0.06172839506172839,93.64197530864199,0)" xlink:href="#aR"/><use transform="matrix(0.06172839506172839,0,0,0.06172839506172839,105.98765432098767,0)" xlink:href="#aU"/><use transform="matrix(0.06172839506172839,0,0,0.06172839506172839,117.46913580246915,0)" xlink:href="#an"/><use transform="matrix(0.06172839506172839,0,0,0.06172839506172839,129.81481481481484,0)" xlink:href="#ar"/><use transform="matrix(0.06172839506172839,0,0,0.06172839506172839,140.92592592592595,0)" xlink:href="#ao"/><path fill="#3a414a" d="M-1.1 1.54h149.3v1.63H-1.1z"/></g><path fill="#333" d="M89 0H52L20-190h33L74-25l89-165h34" id="aV"/><path fill="#333" d="M188 0h-37l-8-164L71 0H34L18-190h31l8 164 75-164h34l8 164 74-164h31" id="aW"/><path fill="#333" d="M194-120c59 52 2 134-86 124-53-6-90-18-98-63l31-7c8 30 29 43 70 43 46 0 84-17 71-62-32-43-135-20-137-98-3-89 178-90 191-16l-30 9c-8-48-127-53-127 5 0 53 81 35 115 65" id="aX"/><path fill="#333" d="M67 3c-93-2-31-127-26-193h32L48-50c-3 39 53 32 70 12 30-34 30-101 43-152h32L157 0h-30c1-10 6-24 4-33-14 20-29 37-64 36" id="aY"/><path fill="#333" d="M248-111c6-24 9-61-24-58-72 9-57 108-77 169h-31l26-142c3-37-50-30-64-10C52-115 50-51 37 0H6l36-190h30c-1 10-6 24-4 32 13-43 101-52 105 5 13-22 29-41 61-41 90 0 28 129 23 194h-31" id="aZ"/><path fill="#333" d="M198-190L69 30C53 58 25 83-20 72c4-11-1-27 19-22 33-1 43-29 59-52L20-190h32L79-34l84-156h35" id="ba"/><g id="u"><use transform="matrix(0.06079210072441507,0,0,0.06079210072441507,0,0)" xlink:href="#aV"/><use transform="matrix(0.06079210072441507,0,0,0.06079210072441507,10.942578130394713,0)" xlink:href="#aI"/><use transform="matrix(0.06079210072441507,0,0,0.06079210072441507,15.745154087623504,0)" xlink:href="#x"/><use transform="matrix(0.06079210072441507,0,0,0.06079210072441507,27.903574232506518,0)" xlink:href="#aW"/><use transform="matrix(0.06079210072441507,0,0,0.06079210072441507,43.64872832013002,0)" xlink:href="#aX"/><use transform="matrix(0.06079210072441507,0,0,0.06079210072441507,58.238832493989634,0)" xlink:href="#aY"/><use transform="matrix(0.06079210072441507,0,0,0.06079210072441507,70.39725263887264,0)" xlink:href="#aZ"/><use transform="matrix(0.06079210072441507,0,0,0.06079210072441507,88.57409075547275,0)" xlink:href="#aZ"/><use transform="matrix(0.06079210072441507,0,0,0.06079210072441507,106.75092887207286,0)" xlink:href="#A"/><use transform="matrix(0.06079210072441507,0,0,0.06079210072441507,118.90934901695587,0)" xlink:href="#z"/><use transform="matrix(0.06079210072441507,0,0,0.06079210072441507,126.14360900316127,0)" xlink:href="#ba"/><use transform="matrix(0.06079210072441507,0,0,0.06079210072441507,137.08618713355597,0)" xlink:href="#aK"/><use transform="matrix(0.06079210072441507,0,0,0.06079210072441507,144.32044711976135,0)" xlink:href="#aL"/></g><g id="v"><use transform="matrix(0.06079210072441507,0,0,0.06079210072441507,0,0)" xlink:href="#aF"/><use transform="matrix(0.06079210072441507,0,0,0.06079210072441507,12.158420144883014,0)" xlink:href="#x"/><use transform="matrix(0.06079210072441507,0,0,0.06079210072441507,24.316840289766027,0)" xlink:href="#G"/><use transform="matrix(0.06079210072441507,0,0,0.06079210072441507,30.396050362207532,0)" xlink:href="#aX"/><use transform="matrix(0.06079210072441507,0,0,0.06079210072441507,44.98615453606715,0)" xlink:href="#aY"/><use transform="matrix(0.06079210072441507,0,0,0.06079210072441507,57.14457468095016,0)" xlink:href="#aZ"/><use transform="matrix(0.06079210072441507,0,0,0.06079210072441507,75.32141279755027,0)" xlink:href="#aZ"/><use transform="matrix(0.06079210072441507,0,0,0.06079210072441507,93.49825091415038,0)" xlink:href="#A"/><use transform="matrix(0.06079210072441507,0,0,0.06079210072441507,105.65667105903339,0)" xlink:href="#z"/><use transform="matrix(0.06079210072441507,0,0,0.06079210072441507,112.89093104523877,0)" xlink:href="#ba"/><use transform="matrix(0.06079210072441507,0,0,0.06079210072441507,123.83350917563348,0)" xlink:href="#aK"/><use transform="matrix(0.06079210072441507,0,0,0.06079210072441507,131.06776916183887,0)" xlink:href="#aL"/></g></defs></g></svg>